HIERARCHY
ROOT Hips
{
	OFFSET 0.00000 0.00000 0.00000
	CHANNELS 6 Xposition Yposition Zposition Zrotation Yrotation Xrotation 
	JOINT LHipJoint
	{
		OFFSET 0 0 0
		CHANNELS 3 Zrotation Yrotation Xrotation
		JOINT LeftHip
		{
			OFFSET 1.57358 -1.76629 0.73362
			CHANNELS 3 Zrotation Yrotation Xrotation
			JOINT LeftKnee
			{
				OFFSET 2.40600 -6.61045 0.00000
				CHANNELS 3 Zrotation Yrotation Xrotation
				JOINT LeftAnkle
				{
					OFFSET 2.66168 -7.31291 0.00000
					CHANNELS 3 Zrotation Yrotation Xrotation
					JOINT LeftToe
					{
						OFFSET 0.20870 -0.57341 2.12506
						CHANNELS 3 Zrotation Yrotation Xrotation
						End Site
						{
							OFFSET 0.00000 -0.00000 1.10557
						}
					}
				}
			}
		}
	}
	JOINT RHipJoint
	{
		OFFSET 0 0 0
		CHANNELS 3 Zrotation Yrotation Xrotation
		JOINT RightHip
		{
			OFFSET -1.49299 -1.76629 0.73362
			CHANNELS 3 Zrotation Yrotation Xrotation
			JOINT RightKnee
			{
				OFFSET -2.43663 -6.69460 0.00000
				CHANNELS 3 Zrotation Yrotation Xrotation
				JOINT RightAnkle
				{
					OFFSET -2.62959 -7.22474 0.00000
					CHANNELS 3 Zrotation Yrotation Xrotation
					JOINT RightToe
					{
						OFFSET -0.25784 -0.70841 2.21862
						CHANNELS 3 Zrotation Yrotation Xrotation
						End Site
						{
							OFFSET -0.00000 -0.00000 1.16452
						}
					}
				}
			}
		}
	}
	JOINT lowerback
	{
		OFFSET 0 0 0
		CHANNELS 3 Zrotation Yrotation Xrotation
		JOINT Chest
		{
			OFFSET -0.00034 2.12399 -0.25450
			CHANNELS 3 Zrotation Yrotation Xrotation
			JOINT Chest2
			{
				OFFSET 0.05594 2.14379 -0.03318
				CHANNELS 3 Zrotation Yrotation Xrotation
				JOINT lowerneck
				{
					OFFSET 0 0 0
					CHANNELS 3 Zrotation Yrotation Xrotation
					JOINT Neck
					{
						OFFSET -0.09835 1.62725 0.24211
						CHANNELS 3 Zrotation Yrotation Xrotation
						JOINT Head
						{
							OFFSET 0.10849 1.66041 -0.22648
							CHANNELS 3 Zrotation Yrotation Xrotation
							End Site
							{
								OFFSET 0.04385 1.68267 -0.10541
							}
						}
					}
				}
				JOINT LeftCollar
				{
					OFFSET 0 0 0
					CHANNELS 3 Zrotation Yrotation Xrotation
					JOINT LeftShoulder
					{
						OFFSET 3.29108 0.79398 -0.68179
CHANNELS 3 Zrotation Xrotation Yrotation
						JOINT LeftElbow
						{
OFFSET 0 -5.153100 -0.000000
CHANNELS 3 Zrotation Xrotation Yrotation
							JOINT LeftWrist
							{
OFFSET 0 -3.751380 -0.000000
CHANNELS 3 Zrotation Xrotation Yrotation
								JOINT lhand
								{
									OFFSET 0 0 0
CHANNELS 3 Zrotation Xrotation Yrotation
									JOINT LFingers
									{
OFFSET 0 -0.529170 0.000000
CHANNELS 3 Zrotation Xrotation Yrotation
										End Site
										{
OFFSET 0 -0.426630 0.000000
										}
									}
								}
								JOINT LThumb
								{
OFFSET 0 0.000000 0.000000
CHANNELS 3 Zrotation Xrotation Yrotation
									End Site
									{
OFFSET 0 -0.433150 0.433150
									}
								}
							}
						}
					}
				}
				JOINT RightCollar
				{
					OFFSET 0 0 0
					CHANNELS 3 Zrotation Yrotation Xrotation
					JOINT RightShoulder
					{
						OFFSET -3.07414 1.06285 -0.44338
CHANNELS 3 Zrotation Xrotation Yrotation
						JOINT RightElbow
						{
OFFSET 0 -5.296130 0.000000
CHANNELS 3 Zrotation Xrotation Yrotation
							JOINT RightWrist
							{
OFFSET 0 -3.761440 -0.000000
CHANNELS 3 Zrotation Xrotation Yrotation
								JOINT rhand
								{
									OFFSET 0 0 0
CHANNELS 3 Zrotation Xrotation Yrotation
									JOINT RFingers
									{
OFFSET 0 -0.747320 0.000000
CHANNELS 3 Zrotation Xrotation Yrotation
										End Site
										{
OFFSET 0 -0.602510 0.000000
										}
									}
								}
								JOINT RThumb
								{
OFFSET 0 0.000000 0.000000
CHANNELS 3 Zrotation Xrotation Yrotation
									End Site
									{
OFFSET 0 -0.611710 0.611710
									}
								}
							}
						}
					}
				}
			}
		}
	}
}
MOTION
Frames: 4
Frame Time: 0.008333333333333333
12.470500 17.175400 -27.867900 0.112500 9.223500 -2.177600 0.000000 0.000000 0.000000 -20.670200 -4.430500 3.439800 8.380900 16.392400 53.923300 1.447700 -10.797400 28.912500 0.016200 0.823000 2.262000 0.000000 0.000000 0.000000 22.816200 10.241800 -22.008800 -3.155700 -10.942900 32.087500 -0.040900 -1.292500 -4.525800 -0.003800 -0.396700 1.090000 -1.994200 -2.227900 8.187900 3.997100 -2.989900 0.922500 5.613300 -1.440700 -3.313300 -10.387400 -4.127500 -18.749200 4.283800 -3.716800 21.263500 2.705500 -2.060000 10.180500 -0.000000 -0.000000 0.000000 -1.081500 -5.648000 -18.656400 17.461700 -27.462400 4.298100 18.421200 8.381900 -23.270900 0.000000 0.000000 0.000000 -7.125000 0.000000 0.000000 -11.280300 54.010600 2.523100 -0.000000 -0.000000 0.000000 -0.366100 9.160100 -8.024700 -9.753900 -16.353700 -1.404900 -13.352500 21.722600 -9.887700 0.000000 0.000000 0.000000 7.125000 0.000000 -0.000000 9.700300 19.893800 5.905000
12.469703 17.194352 -27.755172 -0.183934 9.103125 -2.196130 0.000000 0.000000 0.000000 -20.180538 -4.495519 2.323024 8.759476 16.643236 55.243578 1.053737 -11.509611 26.546189 0.045379 -0.410210 -1.130266 0.000000 0.000000 0.000000 23.318857 10.255686 -21.387504 -3.097764 -10.851000 31.779620 -0.049203 -1.325526 -4.884767 -0.011212 -0.634917 1.744932 -1.790041 -2.148010 8.122130 3.993488 -2.858595 0.609319 5.488234 -1.366064 -3.627044 -10.284288 -4.158931 -17.071597 4.260860 -3.972186 21.013227 2.660418 -2.187693 9.797937 0.000000 0.000000 0.000000 -0.934761 -4.794633 -19.197900 17.476243 -27.481305 4.304808 18.210333 8.129751 -22.874498 0.000000 0.000000 0.000000 -7.125000 0.000000 0.000000 -11.326179 53.572634 2.411075 0.000000 0.000000 0.000000 -0.211527 9.800067 -7.725358 -9.846175 -16.498422 -1.431077 -13.212610 21.513093 -9.365481 0.000000 0.000000 0.000000 7.125000 0.000000 0.000000 9.819737 20.427888 5.858370
12.468905 17.213305 -27.642443 -0.480368 8.982750 -2.214660 0.000000 0.000000 0.000000 -19.690875 -4.560539 1.206249 9.138052 16.894072 56.563856 0.659774 -12.221821 24.179878 0.074558 -1.643420 -4.522532 0.000000 0.000000 0.000000 23.821514 10.269572 -20.766208 -3.039829 -10.759101 31.471739 -0.057507 -1.358551 -5.243734 -0.018624 -0.873133 2.399863 -1.585882 -2.068119 8.056360 3.989876 -2.727289 0.296137 5.363168 -1.291428 -3.940788 -10.181177 -4.190361 -15.393994 4.237921 -4.227573 20.762954 2.615336 -2.315386 9.415373 0.000000 0.000000 0.000000 -0.788022 -3.941265 -19.739399 17.490785 -27.500211 4.311517 17.999465 7.877601 -22.478095 0.000000 0.000000 0.000000 -7.125000 0.000000 0.000000 -11.372059 53.134668 2.299051 0.000000 0.000000 0.000000 -0.056953 10.440034 -7.426015 -9.938450 -16.643144 -1.457253 -13.072720 21.303586 -8.843262 0.000000 0.000000 0.000000 7.125000 0.000000 0.000000 9.939173 20.961975 5.811740
12.470389 17.231849 -27.530530 -0.702257 8.856917 -2.250258 0.000000 0.000000 0.000000 -19.313396 -4.577043 0.117213 9.459925 17.090364 57.661315 0.427568 -12.570517 22.419168 0.192294 -2.635889 -7.278035 0.000000 0.000000 0.000000 24.234107 10.180358 -20.179414 -2.996191 -10.688546 31.236855 -0.067521 -1.292674 -5.553453 -0.029295 -1.083528 2.978825 -1.423598 -2.003708 8.014094 4.025124 -2.622136 0.169317 5.299529 -1.237077 -4.065769 -10.107557 -4.066308 -14.631860 4.347816 -4.173906 20.301187 2.653027 -2.274601 9.110409 0.000000 0.000000 0.000000 -0.766948 -3.567221 -19.851394 17.138717 -27.036819 4.152069 18.774823 8.814901 -22.073383 0.000000 0.000000 0.000000 -7.125000 0.000000 0.000000 -10.438883 52.863755 2.045433 0.000000 0.000000 0.000000 -0.066295 10.538883 -7.442895 -9.922127 -16.617636 -1.452594 -13.118335 21.429447 -8.892875 0.000000 0.000000 0.000000 7.125000 0.000000 0.000000 9.904267 20.909933 5.802789
